<svg xmlns="http://www.w3.org/2000/svg" width="962.386" height="641" viewBox="0 0 962.386 641">
  <g id="Group_2473" data-name="Group 2473" transform="translate(-780.587 -212.873)">
    <g id="Group_2472" data-name="Group 2472" transform="translate(780.587 212.873)">
      <path id="Path_1976" data-name="Path 1976" d="M2204.927,1227.576l72.538.708c60.566-52.9,59.328-205.23,13.623-269.276-76.784-107.628-105.741-86.987-145.961-124.848-40.22-37.92,2.241-177.1-112.168-230.471-114.469-53.372-269.1,37.92-331.73,68.823-62.631,30.961-92,10.851-128.387-1.533-36.328-12.385-111.343.767-170.141,103.618s-37.921,228.112-26.3,275.468c11.618,47.3,16.218,44.7-8.492,97.071-18.223,38.569,9.2,68.174,24.946,81.148h812.074Z" transform="translate(-1361.877 -587.284)" fill="#f5fff5"/>
    </g>
    <g id="Group_1237" data-name="Group 1237" transform="translate(1008.67 272.554)">
      <g id="Group_1238" data-name="Group 1238" transform="translate(0 0)">
        <g id="_1" data-name="1" transform="translate(0)">
          <g id="OBJECT" transform="translate(0 0)">
            <g id="Group_62" data-name="Group 62" transform="translate(0)">
              <g id="Group_50" data-name="Group 50">
                <g id="Group_25" data-name="Group 25" transform="translate(45.27 202.31)">
                  <g id="Group_9" data-name="Group 9" transform="translate(259.325 210.896)">
                    <rect id="Rectangle_5" data-name="Rectangle 5" width="7.079" height="86.255" transform="translate(50.487)" fill="#fff" stroke="#000" stroke-linecap="round" stroke-linejoin="round" stroke-miterlimit="10" stroke-width="0.5"/>
                    <path id="Path_3" data-name="Path 3" d="M545.808,383.8A11.011,11.011,0,0,1,556.8,394.792H535A10.626,10.626,0,0,1,545.808,383.8Z" transform="translate(-491.782 -300.153)" fill="#fff" stroke="#000" stroke-linecap="round" stroke-linejoin="round" stroke-miterlimit="10" stroke-width="0.5"/>
                    <g id="Group_7" data-name="Group 7" transform="translate(53.653 94.453)">
                      <path id="Path_4" data-name="Path 4" d="M540.6,389.6h50.114v15.09h-5.4V394.257H540.6Z" transform="translate(-540.6 -389.6)" fill="#fff" stroke="#000" stroke-linecap="round" stroke-linejoin="round" stroke-miterlimit="10" stroke-width="0.5"/>
                      <circle id="Ellipse_1" data-name="Ellipse 1" cx="6.148" cy="6.148" r="6.148" transform="translate(41.172 9.315)" fill="#fff" stroke="#000" stroke-linecap="round" stroke-linejoin="round" stroke-miterlimit="10" stroke-width="0.5"/>
                      <circle id="Ellipse_2" data-name="Ellipse 2" cx="2.794" cy="2.794" r="2.794" transform="translate(44.525 12.668)" fill="#e6f3fa"/>
                    </g>
                    <g id="Group_8" data-name="Group 8" transform="translate(0 94.453)">
                      <path id="Path_5" data-name="Path 5" d="M563.814,389.6H513.7v15.09h5.4V394.257h44.711Z" transform="translate(-510.16 -389.6)" fill="#fff" stroke="#000" stroke-linecap="round" stroke-linejoin="round" stroke-miterlimit="10" stroke-width="0.5"/>
                      <circle id="Ellipse_3" data-name="Ellipse 3" cx="6.148" cy="6.148" r="6.148" transform="translate(0 9.315)" fill="#fff" stroke="#000" stroke-linecap="round" stroke-linejoin="round" stroke-miterlimit="10" stroke-width="0.5"/>
                      <circle id="Ellipse_4" data-name="Ellipse 4" cx="2.794" cy="2.794" r="2.794" transform="translate(3.353 12.668)" fill="#e6f3fa"/>
                    </g>
                  </g>
                  <g id="Group_10" data-name="Group 10" transform="translate(210.999)">
                    <path id="Path_6" data-name="Path 6" d="M485.935,401.754c.932,10.992,9.874,21.8,15.276,26.082,8.942,7.079,41.917,9.315,59.615,10.06,1.677,0,3.353.186,4.657.186,15.649.373,87.373,8.2,84.206-38.75s5.961-52.163,16.394-93.148c10.619-41.172,34.837-70.048-38-79.549-26.827-3.54-43.221,3.353-53.095,13.413-17.139,17.326-15.463,44.152-15.463,44.152,0,20.12-10.805,57.566-32.043,79.549A55.2,55.2,0,0,1,505.5,378.467C489.847,384.242,485.19,393,485.935,401.754Z" transform="translate(-485.859 -225.696)" fill="#fff" stroke="#54c295" stroke-linecap="round" stroke-linejoin="round" stroke-miterlimit="10" stroke-width="0.5"/>
                    <path id="Path_7" data-name="Path 7" d="M485.9,397.183c.931,10.992,9.874,21.8,15.276,26.082,8.942,7.079,41.917,8.942,59.429,9.687a59.965,59.965,0,0,0,6.148-.186c15.649-1.677,87.559-3.54,78.99-46.2s-.373-48.437,5.216-87.56c5.589-38.936,26.268-68.744-47.133-68-11.737.186-21.238,1.677-29.062,4.471-40.8,14.159-32.229,57.007-32.229,57.007,2.049,15.835-2.422,44.339-15.276,66.694-6.707,11.55-15.649,21.238-27.2,26.64C493.166,389.359,488.508,393.271,485.9,397.183Z" transform="translate(-485.825 -221.124)" fill="#e6f3fa"/>
                  </g>
                  <g id="Group_13" data-name="Group 13" transform="translate(192.38 129.671)">
                    <g id="Group_12" data-name="Group 12" transform="translate(7.928 124.074)">
                      <path id="Path_8" data-name="Path 8" d="M483.6,371.774l28.69,74.519,33.533-5.4L517.692,361.9Z" transform="translate(-477.118 -361.9)" fill="#fff" stroke="#54c295" stroke-linecap="round" stroke-linejoin="round" stroke-miterlimit="10" stroke-width="0.5"/>
                      <g id="Group_11" data-name="Group 11" transform="translate(0 63.341)">
                        <path id="Path_9" data-name="Path 9" d="M548.08,402.2l-32.788,2.422s-37.818,6.148-35.024,25.709l69.489-4.844s5.961-3.912,3.167-9.687A71.084,71.084,0,0,1,548.08,402.2Z" transform="translate(-480.12 -390.463)" fill="#54c295"/>
                        <path id="Path_10" data-name="Path 10" d="M509.506,413.412,500.563,395.9s-8.756,4.471-4.657,11.55,5.589,8.756,5.589,8.756Z" transform="translate(-467.441 -395.9)" fill="#54c295"/>
                      </g>
                      <line id="Line_2" data-name="Line 2" x2="7.079" y2="8.197" transform="translate(15.424 79.549)" fill="none" stroke="#fff" stroke-linecap="round" stroke-linejoin="round" stroke-miterlimit="10" stroke-width="0.5"/>
                      <line id="Line_3" data-name="Line 3" x2="6.893" y2="8.197" transform="translate(18.963 78.058)" fill="none" stroke="#fff" stroke-linecap="round" stroke-linejoin="round" stroke-miterlimit="10" stroke-width="0.5"/>
                      <line id="Line_4" data-name="Line 4" x2="7.079" y2="8.197" transform="translate(21.944 75.823)" fill="none" stroke="#fff" stroke-linecap="round" stroke-linejoin="round" stroke-miterlimit="10" stroke-width="0.5"/>
                    </g>
                    <path id="Path_11" data-name="Path 11" d="M544.86,295.3s-60.733,16.953-67.812,34.651,19.934,136,19.934,136l43.035-12.855L519.71,343.737,603.171,295.3Z" transform="translate(-475.865 -295.3)" fill="#fff" stroke="#54c295" stroke-linecap="round" stroke-linejoin="round" stroke-miterlimit="10" stroke-width="0.5"/>
                  </g>
                  <g id="Group_16" data-name="Group 16" transform="translate(114.759 129.671)">
                    <g id="Group_15" data-name="Group 15" transform="translate(0 122.583)">
                      <path id="Path_12" data-name="Path 12" d="M495.317,361.1,453.4,429.471,477.246,453.5l44.339-71.724Z" transform="translate(-417.631 -361.1)" fill="#fff" stroke="#54c295" stroke-linecap="round" stroke-linejoin="round" stroke-miterlimit="10" stroke-width="0.5"/>
                      <g id="Group_14" data-name="Group 14" transform="translate(0 46.774)">
                        <path id="Path_13" data-name="Path 13" d="M496.609,428.856,475.558,403.52s-27.013-27.2-41.358-13.413l44.339,53.654s6.707,2.422,9.687-2.981A86.049,86.049,0,0,1,496.609,428.856Z" transform="translate(-434.2 -386.207)" fill="#54c295"/>
                        <path id="Path_14" data-name="Path 14" d="M460.293,408.342l9.129-17.326s-8.57-4.471-12.109,2.981c-3.353,7.452-3.912,9.687-3.912,9.687Z" transform="translate(-417.631 -383.205)" fill="#54c295"/>
                      </g>
                      <line id="Line_5" data-name="Line 5" x1="2.422" y2="10.433" transform="translate(25.709 49.555)" fill="none" stroke="#fff" stroke-linecap="round" stroke-linejoin="round" stroke-miterlimit="10" stroke-width="0.5"/>
                      <line id="Line_6" data-name="Line 6" x1="2.608" y2="10.433" transform="translate(28.876 51.418)" fill="none" stroke="#fff" stroke-linecap="round" stroke-linejoin="round" stroke-miterlimit="10" stroke-width="0.5"/>
                      <line id="Line_7" data-name="Line 7" x1="2.422" y2="10.433" transform="translate(32.602 52.536)" fill="none" stroke="#fff" stroke-linecap="round" stroke-linejoin="round" stroke-miterlimit="10" stroke-width="0.5"/>
                    </g>
                    <path id="Path_15" data-name="Path 15" d="M654.352,295.3s17.7,67.067-31.112,70.42c-48.81,3.54-62.223,0-62.223,0l-56.448,91.1L468.8,427.943s41.731-84.02,45.829-100.414,31.857-27.572,48.623-32.229h91.1Z" transform="translate(-404.341 -295.3)" fill="#fff" stroke="#54c295" stroke-linecap="round" stroke-linejoin="round" stroke-miterlimit="10" stroke-width="0.5"/>
                  </g>
                  <g id="Group_23" data-name="Group 23" transform="translate(118.248 44.533)">
                    <g id="Group_22" data-name="Group 22">
                      <path id="Path_31" data-name="Path 31" d="M568.581,334.738l-42.1-84.02a2.049,2.049,0,0,0-1.863-1.118H438.173a2.077,2.077,0,0,0-1.863,2.981l39.868,82.157Z" transform="translate(-436.073 -249.6)" fill="#fff" stroke="#54c295" stroke-linecap="round" stroke-linejoin="round" stroke-miterlimit="10" stroke-width="0.5"/>
                      <path id="Path_32" data-name="Path 32" d="M564.662,333.7l-40.8-81.784A2.049,2.049,0,0,0,522,250.8H438.539a2.1,2.1,0,0,0-1.863,2.981L475.239,333.7Z" transform="translate(-435.693 -248.564)" fill="#fff" stroke="#54c295" stroke-linecap="round" stroke-linejoin="round" stroke-miterlimit="10" stroke-width="0.5"/>
                      <path id="Path_33" data-name="Path 33" d="M506.1,293h51.418v4.285H508.149Z" transform="translate(-375.641 -212.147)" fill="#fff" stroke="#54c295" stroke-linecap="round" stroke-linejoin="round" stroke-miterlimit="10" stroke-width="0.5"/>
                    </g>
                    <path id="Path_34" data-name="Path 34" d="M544.477,295.416H458.036l-2.236-4.471,85.51-.745Z" transform="translate(-419.049 -214.563)" fill="#e6f3fa"/>
                    <path id="Path_35" data-name="Path 35" d="M471.207,272.784a6.919,6.919,0,0,0-3.726-6.148c3.726-1.3,8.011,1.863,9.687,7.079,1.677,5.03.186,10.246-3.353,11.55-3.353,1.118-7.266-1.3-9.315-5.775A6.679,6.679,0,0,0,471.207,272.784Z" transform="translate(-411.541 -235.152)" fill="#ceffeb"/>
                  </g>
                  <g id="Group_24" data-name="Group 24" transform="translate(101.718 91.107)">
                    <path id="Path_36" data-name="Path 36" d="M430.263,310.057H448.52L450.2,278.2H428.4Z" transform="translate(-426.164 -271.493)" fill="#fff" stroke="#54c295" stroke-linecap="round" stroke-linejoin="round" stroke-miterlimit="10" stroke-width="0.5"/>
                    <rect id="Rectangle_7" data-name="Rectangle 7" width="26.454" height="4.099" transform="translate(0 2.608)" fill="#fff" stroke="#54c295" stroke-linecap="round" stroke-linejoin="round" stroke-miterlimit="10" stroke-width="0.5"/>
                    <rect id="Rectangle_8" data-name="Rectangle 8" width="22.728" height="2.794" transform="translate(1.863)" fill="#fff" stroke="#54c295" stroke-linecap="round" stroke-linejoin="round" stroke-miterlimit="10" stroke-width="0.5"/>
                    <circle id="Ellipse_7" data-name="Ellipse 7" cx="4.844" cy="4.844" r="4.844" transform="translate(8.383 14.345)" fill="#ceffeb"/>
                  </g>
                  <rect id="Rectangle_6" data-name="Rectangle 6" width="487.725" height="6.52" transform="translate(0 129.671)" fill="#32906a"/>
                </g>
                <g id="Group_29" data-name="Group 29" transform="translate(104.885)">
                  <g id="Group_26" data-name="Group 26" transform="translate(130.594)">
                    <path id="Path_37" data-name="Path 37" d="M537.3,128.464,474.7,117.1l50.486,18.071Z" transform="translate(-474.7 -117.1)" fill="#fff" stroke="#54c295" stroke-linecap="round" stroke-linejoin="round" stroke-miterlimit="10" stroke-width="0.5"/>
                    <path id="Path_38" data-name="Path 38" d="M474.7,117.1l43.035,24.032-14.9,14.159Z" transform="translate(-474.7 -117.1)" fill="#fff" stroke="#54c295" stroke-linecap="round" stroke-linejoin="round" stroke-miterlimit="10" stroke-width="0.5"/>
                    <path id="Path_39" data-name="Path 39" d="M525.186,135.171l-4.1,20.12-3.353-14.159L474.7,117.1Z" transform="translate(-474.7 -117.1)" fill="#fff" stroke="#54c295" stroke-linecap="round" stroke-linejoin="round" stroke-miterlimit="10" stroke-width="0.5"/>
                    <path id="Path_40" data-name="Path 40" d="M504.26,144.159l-10.06-7.824L500.907,130Z" transform="translate(-457.872 -105.968)" fill="#fff" stroke="#54c295" stroke-linecap="round" stroke-linejoin="round" stroke-miterlimit="10" stroke-width="0.5"/>
                  </g>
                  <g id="Group_28" data-name="Group 28" transform="translate(0 41.544)">
                    <g id="Group_27" data-name="Group 27">
                      <path id="Path_41" data-name="Path 41" d="M501.7,139.4a28.449,28.449,0,0,1,2.049,2.981" transform="translate(-320.806 -139.4)" fill="none" stroke="#54c295" stroke-linecap="round" stroke-linejoin="round" stroke-width="0.5"/>
                      <path id="Path_42" data-name="Path 42" d="M589.226,144.4a129.779,129.779,0,0,1,17.064,51.871,132.784,132.784,0,0,1-4.768,52.828c-2.422,8.2-5.775,16.208-11.737,22.356-10.246,10.619-26.082,13.6-40.8,13.041-27.572-1.3-53.281-12.854-79.363-20.306-19.748-5.589-45.456-10.433-62.223,3.726" transform="translate(-402.184 -135.085)" fill="none" stroke="#54c295" stroke-linecap="round" stroke-linejoin="round" stroke-width="0.5" stroke-dasharray="4.011 4.011"/>
                      <path id="Path_43" data-name="Path 43" d="M407.022,212.1a32.39,32.39,0,0,0-2.422,2.794" transform="translate(-404.6 -76.662)" fill="none" stroke="#54c295" stroke-linecap="round" stroke-linejoin="round" stroke-width="0.5"/>
                    </g>
                  </g>
                </g>
                <g id="Group_33" data-name="Group 33" transform="translate(105.444 16.953)">
                  <g id="Group_30" data-name="Group 30" transform="translate(11.737 10.992)">
                    <circle id="Ellipse_8" data-name="Ellipse 8" cx="3.54" cy="3.54" r="3.54" transform="translate(46.76)" fill="#e6f3fa"/>
                    <circle id="Ellipse_9" data-name="Ellipse 9" cx="3.54" cy="3.54" r="3.54" transform="translate(35.024)" fill="#e6f3fa"/>
                    <circle id="Ellipse_10" data-name="Ellipse 10" cx="3.54" cy="3.54" r="3.54" transform="translate(23.473)" fill="#e6f3fa"/>
                    <circle id="Ellipse_11" data-name="Ellipse 11" cx="3.54" cy="3.54" r="3.54" transform="translate(11.737)" fill="#e6f3fa"/>
                    <circle id="Ellipse_12" data-name="Ellipse 12" cx="3.54" cy="3.54" r="3.54" fill="#e6f3fa"/>
                  </g>
                  <g id="Group_31" data-name="Group 31" transform="translate(0 22.356)">
                    <circle id="Ellipse_13" data-name="Ellipse 13" cx="3.54" cy="3.54" r="3.54" transform="translate(46.761)" fill="#e6f3fa"/>
                    <circle id="Ellipse_14" data-name="Ellipse 14" cx="3.54" cy="3.54" r="3.54" transform="translate(35.21)" fill="#e6f3fa"/>
                    <circle id="Ellipse_15" data-name="Ellipse 15" cx="3.54" cy="3.54" r="3.54" transform="translate(23.473)" fill="#e6f3fa"/>
                    <circle id="Ellipse_16" data-name="Ellipse 16" cx="3.54" cy="3.54" r="3.54" transform="translate(11.737)" fill="#e6f3fa"/>
                    <circle id="Ellipse_17" data-name="Ellipse 17" cx="3.54" cy="3.54" r="3.54" fill="#e6f3fa"/>
                  </g>
                  <g id="Group_32" data-name="Group 32" transform="translate(36.701)">
                    <circle id="Ellipse_18" data-name="Ellipse 18" cx="3.54" cy="3.54" r="3.54" transform="translate(46.947)" fill="#e6f3fa"/>
                    <circle id="Ellipse_19" data-name="Ellipse 19" cx="3.54" cy="3.54" r="3.54" transform="translate(35.21)" fill="#e6f3fa"/>
                    <circle id="Ellipse_20" data-name="Ellipse 20" cx="3.54" cy="3.54" r="3.54" transform="translate(23.473)" fill="#e6f3fa"/>
                    <circle id="Ellipse_21" data-name="Ellipse 21" cx="3.54" cy="3.54" r="3.54" transform="translate(11.737)" fill="#e6f3fa"/>
                    <circle id="Ellipse_22" data-name="Ellipse 22" cx="3.54" cy="3.54" r="3.54" fill="#e6f3fa"/>
                  </g>
                </g>
                <g id="Group_34" data-name="Group 34" transform="translate(184.62 197.847)">
                  <path id="Path_44" data-name="Path 44" d="M473.3,251.182l-23.1-7.079,6.52-4.657-9.315-9.5,5.216-4.844,9.129,9.315,5.03-6.334Z" transform="translate(-447.4 -221.747)" fill="#ceffeb"/>
                  <path id="Path_45" data-name="Path 45" d="M473.6,249.568l-23.1-7.266,6.52-4.657-9.315-9.5,5.03-4.844,9.315,9.315,4.844-6.334Z" transform="translate(-447.141 -223.3)" fill="none" stroke="#54c295" stroke-linecap="round" stroke-linejoin="round" stroke-miterlimit="10" stroke-width="0.5"/>
                </g>
                <g id="Group_36" data-name="Group 36" transform="translate(64.067 41.851)">
                  <path id="Path_46" data-name="Path 46" d="M645.489,271.189v.373a9.569,9.569,0,0,1-12.855,10.433l-.373-.186a9.417,9.417,0,0,1-2.608-16.208l.373-.186A9.5,9.5,0,0,1,645.489,271.189Z" transform="translate(-172.648 -32.849)" fill="none" stroke="#54c295" stroke-linecap="round" stroke-linejoin="round" stroke-miterlimit="10" stroke-width="0.5"/>
                  <path id="Path_47" data-name="Path 47" d="M392.4,140.562l.559.373a6.385,6.385,0,0,1-.559,10.992l-.559.186a6.265,6.265,0,0,1-9.129-5.962v-.559A6.3,6.3,0,0,1,392.4,140.562Z" transform="translate(-382.69 -139.564)" fill="none" stroke="#54c295" stroke-linecap="round" stroke-linejoin="round" stroke-miterlimit="10" stroke-width="0.5"/>
                  <rect id="Rectangle_9" data-name="Rectangle 9" width="16.022" height="16.022" transform="matrix(-0.866, 0.5, -0.5, -0.866, 312.568, 46.533)" fill="none" stroke="#54c295" stroke-linecap="round" stroke-linejoin="round" stroke-miterlimit="10" stroke-width="0.5"/>
                  <circle id="Ellipse_23" data-name="Ellipse 23" cx="7.079" cy="7.079" r="7.079" transform="translate(62.987 197.914)" fill="none" stroke="#54c295" stroke-linecap="round" stroke-linejoin="round" stroke-miterlimit="10" stroke-width="0.5"/>
                  <g id="Group_35" data-name="Group 35" transform="translate(393.105 144.26)">
                    <path id="Path_48" data-name="Path 48" d="M620.9,230.041a9.347,9.347,0,0,0-.931-2.422l2.049-2.608a1.755,1.755,0,0,0-.186-2.422l-1.49-1.49a1.953,1.953,0,0,0-2.422-.186l-2.608,2.049a9.36,9.36,0,0,0-2.422-.931l-.373-3.353A1.8,1.8,0,0,0,610.839,217H608.79a1.67,1.67,0,0,0-1.677,1.677l-.373,3.353a9.359,9.359,0,0,0-2.422.931l-2.608-2.049a1.755,1.755,0,0,0-2.422.186l-1.49,1.49a1.952,1.952,0,0,0-.186,2.422l2.049,2.608a9.356,9.356,0,0,0-.932,2.422l-3.353.373a1.8,1.8,0,0,0-1.677,1.677v2.049a1.67,1.67,0,0,0,1.677,1.677l3.353.373a9.355,9.355,0,0,0,.932,2.422l-2.049,2.608a1.755,1.755,0,0,0,.186,2.422l1.49,1.49a1.953,1.953,0,0,0,2.422.186l2.608-2.049a9.355,9.355,0,0,0,2.422.931l.373,3.353a1.8,1.8,0,0,0,1.677,1.677h2.049a1.67,1.67,0,0,0,1.677-1.677l.373-3.353a9.355,9.355,0,0,0,2.422-.931l2.608,2.049a1.755,1.755,0,0,0,2.422-.186l1.49-1.49a1.953,1.953,0,0,0,.186-2.422l-2.049-2.608a9.345,9.345,0,0,0,.931-2.422l3.354-.373a1.8,1.8,0,0,0,1.677-1.677V232.09a1.67,1.67,0,0,0-1.677-1.677Z" transform="translate(-593.7 -217)" fill="none" stroke="#54c295" stroke-linecap="round" stroke-linejoin="round" stroke-miterlimit="10" stroke-width="0.5"/>
                    <circle id="Ellipse_24" data-name="Ellipse 24" cx="5.216" cy="5.216" r="5.216" transform="translate(10.992 10.992)" fill="none" stroke="#54c295" stroke-linecap="round" stroke-linejoin="round" stroke-miterlimit="10" stroke-width="0.5"/>
                  </g>
                </g>
                <g id="Group_49" data-name="Group 49" transform="translate(0 11.737)">
                  <g id="Group_41" data-name="Group 41" transform="translate(142.21 47.244)">
                    <g id="Group_37" data-name="Group 37" transform="translate(3.844 4.171)">
                      <path id="Path_49" data-name="Path 49" d="M439.369,236.511l95.384,15.463a15.436,15.436,0,0,0,17.512-12.482l8.942-55.33a15.436,15.436,0,0,0-12.482-17.512l-95.384-15.463a15.436,15.436,0,0,0-17.512,12.482L426.887,219A15.334,15.334,0,0,0,439.369,236.511Z" transform="translate(-426.699 -150.999)" fill="#ceffeb"/>
                    </g>
                    <g id="Group_40" data-name="Group 40">
                      <g id="Group_39" data-name="Group 39">
                        <path id="Path_50" data-name="Path 50" d="M430.717,234.159,541.937,252.23a7.175,7.175,0,0,0,8.2-5.962l11.55-71.165a7.175,7.175,0,0,0-5.962-8.2L444.5,148.835a7.175,7.175,0,0,0-8.2,5.961l-11.55,71.165A7.043,7.043,0,0,0,430.717,234.159Z" transform="translate(-424.635 -148.76)" fill="none" stroke="#54c295" stroke-linecap="round" stroke-linejoin="round" stroke-miterlimit="10" stroke-width="0.5"/>
                        <path id="Path_1978" data-name="Path 1978" d="M125.564,20.306,51.991,8.408,0,0" transform="translate(10.367 13.116)" fill="none" stroke="#54c295" stroke-linecap="round" stroke-width="0.5"/>
                        <g id="Group_38" data-name="Group 38" transform="translate(111.713 20.568)">
                          <circle id="Ellipse_25" data-name="Ellipse 25" cx="2.608" cy="2.608" r="2.608" transform="translate(15.09 2.422)" fill="#fff" stroke="#54c295" stroke-linecap="round" stroke-linejoin="round" stroke-miterlimit="10" stroke-width="0.5"/>
                          <circle id="Ellipse_26" data-name="Ellipse 26" cx="2.608" cy="2.608" r="2.608" transform="translate(7.638 1.304)" fill="#fff" stroke="#54c295" stroke-linecap="round" stroke-linejoin="round" stroke-miterlimit="10" stroke-width="0.5"/>
                          <circle id="Ellipse_27" data-name="Ellipse 27" cx="2.608" cy="2.608" r="2.608" fill="#fff" stroke="#54c295" stroke-linecap="round" stroke-linejoin="round" stroke-miterlimit="10" stroke-width="0.5"/>
                        </g>
                      </g>
                      <text id="_" data-name="&lt;/&gt;" transform="matrix(-0.987, -0.16, -0.16, 0.987, 104.633, 83.382)" fill="#fff" stroke="#54c295" stroke-linecap="round" stroke-linejoin="round" stroke-miterlimit="10" stroke-width="0.5" font-size="49" font-family="Lato-Heavy, Lato" font-weight="800"><tspan x="0" y="0">&lt;/&gt;</tspan></text>
                    </g>
                  </g>
                  <g id="Group_42" data-name="Group 42" transform="translate(11.923 165.691)">
                    <rect id="Rectangle_10" data-name="Rectangle 10" width="15.276" height="40.985" transform="translate(90.652 91.022) rotate(-169.327)" fill="#ceffeb"/>
                    <rect id="Rectangle_11" data-name="Rectangle 11" width="15.276" height="68.185" transform="translate(37.447 80.978) rotate(-169.322)" fill="#ceffeb"/>
                    <rect id="Rectangle_12" data-name="Rectangle 12" width="15.276" height="54.399" transform="translate(64.056 85.977) rotate(-169.322)" fill="#ceffeb"/>
                    <rect id="Rectangle_13" data-name="Rectangle 13" width="15.276" height="45.084" transform="translate(84.722 89.821) rotate(-169.322)" fill="none" stroke="#54c295" stroke-linecap="round" stroke-linejoin="round" stroke-miterlimit="10" stroke-width="0.5"/>
                    <rect id="Rectangle_14" data-name="Rectangle 14" width="15.276" height="78.245" transform="translate(31.494 79.722) rotate(-169.322)" fill="none" stroke="#54c295" stroke-linecap="round" stroke-linejoin="round" stroke-miterlimit="10" stroke-width="0.5"/>
                    <rect id="Rectangle_15" data-name="Rectangle 15" width="15.276" height="62.037" transform="translate(58.029 84.835) rotate(-169.322)" fill="none" stroke="#54c295" stroke-linecap="round" stroke-linejoin="round" stroke-miterlimit="10" stroke-width="0.5"/>
                    <path id="Path_1977" data-name="Path 1977" d="M98.737,18.63,0,0" transform="translate(0 73.886)" fill="none" stroke="#54c295" stroke-linecap="round" stroke-width="0.5"/>
                  </g>
                  <g id="Group_44" data-name="Group 44" transform="translate(404.637 90.899)">
                    <path id="Path_51" data-name="Path 51" d="M675.466,177.846v50.859a3.737,3.737,0,0,1-3.726,3.726H581.572L567.6,254.787V178.032a3.737,3.737,0,0,1,3.726-3.726H671.74A3.378,3.378,0,0,1,675.466,177.846Z" transform="translate(-563.688 -170.38)" fill="#ceffeb"/>
                    <path id="Path_52" data-name="Path 52" d="M673.366,175.746v50.859a3.737,3.737,0,0,1-3.726,3.726H579.472L565.5,252.687V175.932a3.737,3.737,0,0,1,3.726-3.726H669.64A3.472,3.472,0,0,1,673.366,175.746Z" transform="translate(-565.5 -172.192)" fill="none" stroke="#54c295" stroke-linecap="round" stroke-linejoin="round" stroke-miterlimit="10" stroke-width="0.5"/>
                    <g id="Group_43" data-name="Group 43" transform="translate(12.109 13.055)">
                      <path id="Path_53" data-name="Path 53" d="M575.167,185.534h74.705a3.14,3.14,0,0,0,3.167-3.167h0a3.14,3.14,0,0,0-3.167-3.167H575.167A3.14,3.14,0,0,0,572,182.367h0A3.032,3.032,0,0,0,575.167,185.534Z" transform="translate(-572 -179.2)" fill="#fff" stroke="#54c295" stroke-linecap="round" stroke-linejoin="round" stroke-miterlimit="10" stroke-width="0.5"/>
                      <path id="Path_54" data-name="Path 54" d="M580.494,191.161h64.831a2.943,2.943,0,0,0,2.981-2.981h0a2.943,2.943,0,0,0-2.981-2.981H580.681a2.943,2.943,0,0,0-2.981,2.981h0A2.907,2.907,0,0,0,580.494,191.161Z" transform="translate(-567.081 -174.022)" fill="#fff" stroke="#54c295" stroke-linecap="round" stroke-linejoin="round" stroke-miterlimit="10" stroke-width="0.5"/>
                      <path id="Path_55" data-name="Path 55" d="M592.281,196.962h43.035a2.942,2.942,0,0,0,2.981-2.981h0A2.943,2.943,0,0,0,635.315,191H592.281a2.943,2.943,0,0,0-2.981,2.981h0A2.942,2.942,0,0,0,592.281,196.962Z" transform="translate(-557.07 -169.017)" fill="#fff" stroke="#54c295" stroke-linecap="round" stroke-linejoin="round" stroke-miterlimit="10" stroke-width="0.5"/>
                    </g>
                  </g>
                  <g id="Group_45" data-name="Group 45" transform="translate(0 52.908)">
                    <path id="Path_56" data-name="Path 56" d="M425.613,206.012l-46.2,16.58-5.962,4.844L348.3,172.293l6.52-4.844L400.649,151.8Z" transform="translate(-348.3 -151.8)" fill="#fff" stroke="#000" stroke-linecap="round" stroke-linejoin="round" stroke-miterlimit="10" stroke-width="0.5"/>
                    <path id="Path_57" data-name="Path 57" d="M406.448,182l3.167,6.52L363.6,198.767l2.608-2.236Z" transform="translate(-335.096 -125.738)" fill="#fff" stroke="#000" stroke-linecap="round" stroke-linejoin="round" stroke-miterlimit="10" stroke-width="0.5"/>
                    <path id="Path_58" data-name="Path 58" d="M406.884,186l1.863,4.844L361.8,197.923l3.353-2.608Z" transform="translate(-336.65 -122.286)" fill="#fff" stroke="#000" stroke-linecap="round" stroke-linejoin="round" stroke-miterlimit="10" stroke-width="0.5"/>
                    <line id="Line_10" data-name="Line 10" x2="21.983" y2="51.604" transform="translate(6.52 15.649)" fill="#fff" stroke="#000" stroke-linecap="round" stroke-linejoin="round" stroke-miterlimit="10" stroke-width="0.5"/>
                    <path id="Path_59" data-name="Path 59" d="M393.077,153.7l21.8,48.437-37.818,14.345L354.7,166.741Z" transform="translate(-342.777 -150.16)" fill="#ceffeb"/>
                  </g>
                  <g id="Group_48" data-name="Group 48" transform="translate(327.324)">
                    <g id="Group_46" data-name="Group 46" transform="translate(1.677 1.118)">
                      <circle id="Ellipse_28" data-name="Ellipse 28" cx="15.09" cy="15.09" r="15.09" fill="#e6f3fa"/>
                      <ellipse id="Ellipse_29" data-name="Ellipse 29" cx="8.011" cy="15.09" rx="8.011" ry="15.09" transform="translate(7.079)" fill="#e6f3fa"/>
                      <path id="Path_60" data-name="Path 60" d="M527.3,126.4c1.677,2.608,6.148,4.471,10.619,4.471s8.942-1.863,10.619-4.471" transform="translate(-522.829 -121.929)" fill="#e6f3fa"/>
                      <path id="Path_61" data-name="Path 61" d="M548.538,139.871c-1.677-2.608-6.148-4.471-10.619-4.471s-8.942,1.863-10.619,4.471" transform="translate(-522.829 -114.162)" fill="#e6f3fa"/>
                      <line id="Line_11" data-name="Line 11" x1="29.994" transform="translate(0 15.09)" fill="#e6f3fa"/>
                      <line id="Line_12" data-name="Line 12" y2="29.994" transform="translate(15.09)" fill="#e6f3fa"/>
                    </g>
                    <g id="Group_47" data-name="Group 47">
                      <circle id="Ellipse_30" data-name="Ellipse 30" cx="15.09" cy="15.09" r="15.09" fill="none" stroke="#54c295" stroke-linecap="round" stroke-linejoin="round" stroke-miterlimit="10" stroke-width="0.5"/>
                      <ellipse id="Ellipse_31" data-name="Ellipse 31" cx="8.011" cy="15.09" rx="8.011" ry="15.09" transform="translate(7.079)" fill="none" stroke="#54c295" stroke-linecap="round" stroke-linejoin="round" stroke-miterlimit="10" stroke-width="0.5"/>
                      <path id="Path_62" data-name="Path 62" d="M526.5,125.8c1.677,2.608,6.148,4.471,10.619,4.471s8.942-1.863,10.619-4.471" transform="translate(-521.843 -121.329)" fill="none" stroke="#54c295" stroke-linecap="round" stroke-linejoin="round" stroke-miterlimit="10" stroke-width="0.5"/>
                      <path id="Path_63" data-name="Path 63" d="M547.638,139.271c-1.677-2.608-6.148-4.471-10.619-4.471s-8.942,1.863-10.619,4.471" transform="translate(-521.929 -113.562)" fill="none" stroke="#54c295" stroke-linecap="round" stroke-linejoin="round" stroke-miterlimit="10" stroke-width="0.5"/>
                      <line id="Line_13" data-name="Line 13" x1="29.994" transform="translate(0.186 15.09)" fill="none" stroke="#54c295" stroke-linecap="round" stroke-linejoin="round" stroke-miterlimit="10" stroke-width="0.5"/>
                      <line id="Line_14" data-name="Line 14" y2="30.18" transform="translate(15.09)" fill="none" stroke="#54c295" stroke-linecap="round" stroke-linejoin="round" stroke-miterlimit="10" stroke-width="0.5"/>
                    </g>
                  </g>
                </g>
              </g>
            </g>
          </g>
        </g>
        <g id="Group_1234" data-name="Group 1234" transform="translate(293.519 150.962)">
          <g id="Group_1202" data-name="Group 1202" transform="translate(0 0)">
            <g id="Group_1235" data-name="Group 1235" transform="translate(0 0)">
              <g id="Group_1194" data-name="Group 1194">
                <g id="Group_1116" data-name="Group 1116" transform="translate(0 57.435)">
                  <g id="Group_1115" data-name="Group 1115">
                    <g id="Group_1114" data-name="Group 1114">
                      <g id="Group_1113" data-name="Group 1113">
                        <path id="Path_950" data-name="Path 950" d="M2792.724,1316.6s23.731.394,29.249,3.627,30.749,44.86,36.188,62.441c0,0-14.269,12.457-32.561,12.93l-4.414-8.279,2.522,17.029-48.093,14.27a79.554,79.554,0,0,1-49.749-1.577l-4.966-1.813s.078-80.89,14.506-89.484C2748.258,1318.1,2776.167,1314.075,2792.724,1316.6Z" transform="translate(-2720.9 -1315.846)" fill="#54c295"/>
                      </g>
                    </g>
                  </g>
                </g>
                <g id="Group_1119" data-name="Group 1119" transform="translate(42.02 11.356)">
                  <g id="Group_1118" data-name="Group 1118">
                    <g id="Group_1117" data-name="Group 1117">
                      <path id="Path_951" data-name="Path 951" d="M2774.2,1264.417v22.943s-.315,7.726,6.465,8.672l-1.261,10.328a8.027,8.027,0,0,0,5.52,8.673,21.66,21.66,0,0,0,6.385,1.025c7.727,0,11.906-5.834,12.615-8.673.631-2.917-1.262-16.793-1.262-16.793l.238-6.78-.869-26.412Z" transform="translate(-2774.197 -1257.4)" fill="#fe9f73"/>
                    </g>
                  </g>
                </g>
                <g id="Group_1122" data-name="Group 1122" transform="translate(52.298 26.823)">
                  <g id="Group_1121" data-name="Group 1121">
                    <g id="Group_1120" data-name="Group 1120">
                      <path id="Path_952" data-name="Path 952" d="M2795.643,1280.078a.29.29,0,0,0,.236-.078.3.3,0,0,0,0-.474c-.078-.079-4.493-4.573-8.515-1.34-.157.079-.157.315-.078.473s.315.158.473.079c3.627-2.917,7.49,1.1,7.647,1.262C2795.486,1280,2795.564,1280.078,2795.643,1280.078Z" transform="translate(-2787.235 -1277.018)" fill="#1e2b5f"/>
                    </g>
                  </g>
                </g>
                <g id="Group_1125" data-name="Group 1125" transform="translate(42.377 25.718)">
                  <g id="Group_1124" data-name="Group 1124">
                    <g id="Group_1123" data-name="Group 1123">
                      <path id="Path_953" data-name="Path 953" d="M2779.656,1277.811a.293.293,0,0,0,.238-.079.5.5,0,0,0,0-.473c-.158-.078-3.234-2.759-5.125-1.1-.158.078-.158.315,0,.473.078.157.315.157.473,0,1.5-1.34,4.257,1.025,4.336,1.1C2779.5,1277.811,2779.578,1277.811,2779.656,1277.811Z" transform="translate(-2774.649 -1275.616)" fill="#1e2b5f"/>
                    </g>
                  </g>
                </g>
                <g id="Group_1128" data-name="Group 1128" transform="translate(54.242 30.199)">
                  <g id="Group_1127" data-name="Group 1127">
                    <g id="Group_1126" data-name="Group 1126">
                      <circle id="Ellipse_193" data-name="Ellipse 193" cx="0.946" cy="0.946" r="0.946" fill="#1e2b5f"/>
                    </g>
                  </g>
                </g>
                <g id="Group_1131" data-name="Group 1131" transform="translate(43.914 29.253)">
                  <g id="Group_1130" data-name="Group 1130">
                    <g id="Group_1129" data-name="Group 1129">
                      <circle id="Ellipse_194" data-name="Ellipse 194" cx="0.946" cy="0.946" r="0.946" fill="#1e2b5f"/>
                    </g>
                  </g>
                </g>
                <g id="Group_1134" data-name="Group 1134" transform="translate(32.891)">
                  <g id="Group_1133" data-name="Group 1133">
                    <g id="Group_1132" data-name="Group 1132">
                      <path id="Path_954" data-name="Path 954" d="M2798.554,1255.535l-5.44,7.647s-16.4,6.386-24.756-1.182c-8.357-7.491-5.834-11.117-3.312-14.9,1.184-1.892,7.018-5.676,14.113-2.522,3.864,1.734,6.7-3.391,11.274-.868,4.495,2.6,9.855,7.017,9.224,8.83A19.663,19.663,0,0,1,2798.554,1255.535Z" transform="translate(-2762.618 -1242.996)" fill="#1e2b5f"/>
                    </g>
                  </g>
                </g>
                <g id="Group_1137" data-name="Group 1137" transform="translate(65.753 9.381)">
                  <g id="Group_1136" data-name="Group 1136">
                    <g id="Group_1135" data-name="Group 1135">
                      <path id="Path_955" data-name="Path 955" d="M2807.059,1254.9s7.41-.394,9.54,6.78c2.05,7.175-.709,10.958-.789,13.088s1.34,16.557-8.751,15.453l-2.76-23.809,3.547-9.461Z" transform="translate(-2804.299 -1254.895)" fill="#1e2b5f"/>
                    </g>
                  </g>
                </g>
                <g id="Group_1140" data-name="Group 1140" transform="translate(62.126 24.995)">
                  <g id="Group_1139" data-name="Group 1139">
                    <g id="Group_1138" data-name="Group 1138">
                      <circle id="Ellipse_195" data-name="Ellipse 195" cx="5.834" cy="5.834" r="5.834" fill="#fe9f73"/>
                    </g>
                  </g>
                </g>
                <g id="Group_1143" data-name="Group 1143" transform="translate(66.147 27.9)">
                  <g id="Group_1142" data-name="Group 1142">
                    <g id="Group_1141" data-name="Group 1141">
                      <path id="Path_956" data-name="Path 956" d="M2807.087,1284.861a2.471,2.471,0,0,0,2.286-1.813,2.316,2.316,0,0,0-.946-2.681,2.81,2.81,0,0,0-3.075.078,2.64,2.64,0,0,1,1.183-1.418,3.692,3.692,0,0,1,2.6-.159.293.293,0,0,0,.237-.078.287.287,0,0,0-.08-.237,4.409,4.409,0,0,0-2.838.158,3.135,3.135,0,0,0-1.5,2.128l-.158.552.395-.394a2.481,2.481,0,0,1,3.075-.394,2.1,2.1,0,0,1,.789,2.286,2.138,2.138,0,0,1-1.971,1.577h0a.169.169,0,0,0-.157.157c-.081.158,0,.237.157.237Z" transform="translate(-2804.8 -1278.384)" fill="#f07162"/>
                    </g>
                  </g>
                </g>
                <g id="Group_1146" data-name="Group 1146" transform="translate(47.541 43.444)">
                  <g id="Group_1145" data-name="Group 1145">
                    <g id="Group_1144" data-name="Group 1144">
                      <path id="Path_957" data-name="Path 957" d="M2797.835,1298.1s-.474,12.93-16.635,14.191l.946-7.647S2792.632,1306.772,2797.835,1298.1Z" transform="translate(-2781.2 -1298.1)" fill="#f07162"/>
                    </g>
                  </g>
                </g>
                <g id="Group_1149" data-name="Group 1149" transform="translate(100.679 114.006)">
                  <g id="Group_1148" data-name="Group 1148">
                    <g id="Group_1147" data-name="Group 1147">
                      <path id="Path_958" data-name="Path 958" d="M2848.758,1403.525a60.835,60.835,0,0,0,32.01-15.216l-.709-.709c-.079.157-11.748,11.9-31.457,14.9Z" transform="translate(-2848.6 -1387.6)" fill="#1e2b5f"/>
                    </g>
                  </g>
                </g>
                <g id="Group_1164" data-name="Group 1164" transform="translate(12.154 127.882)">
                  <g id="Group_1163" data-name="Group 1163">
                    <g id="Group_1162" data-name="Group 1162">
                      <path id="Path_963" data-name="Path 963" d="M2736.54,1441.782l5.519-8.515h0c3-4.888,7.884-11.274,13.009-11.826,8.278-.946,58.815-3,74.82-4.967l-1.1-1.892c.158.079,13.088-2.208,13.088-2.208l8.278-3.942,7.49-3.232c2.051,8.042,7.727,21.287,1.891,30.511-10.721,17.029-92.873,8.672-100.205,6.386l-6.7,7.253-1.34,2.128a2.165,2.165,0,0,1-3.627-2.365l-.551.867a2.156,2.156,0,0,1-3,.631h0a2.165,2.165,0,0,0-3.627-2.365,2.155,2.155,0,0,1-.63-3l.552-.867a2.155,2.155,0,0,1-3,.63h0a.077.077,0,0,1-.079-.079h0l-.079-.079h0a.791.791,0,0,1-.315-.394A2.482,2.482,0,0,1,2736.54,1441.782Z" transform="translate(-2736.315 -1405.2)" fill="#fe9f73"/>
                    </g>
                  </g>
                </g>
                <g id="Group_1167" data-name="Group 1167" transform="translate(99.733 101.628)">
                  <g id="Group_1166" data-name="Group 1166">
                    <g id="Group_1165" data-name="Group 1165">
                      <path id="Path_964" data-name="Path 964" d="M2852.051,1408.167h.315c16.319-.395,32.718-12.93,32.876-13.087l.316-.237L2875.23,1371.9l-.867.395,10.012,22.232c-2.286,1.656-17.029,12.141-31.693,12.614l-4.416-9.066-.868.394Z" transform="translate(-2847.399 -1371.9)" fill="#1e2b5f"/>
                    </g>
                  </g>
                </g>
                <g id="Group_1170" data-name="Group 1170" transform="translate(105.279 138.789)">
                  <g id="Group_1169" data-name="Group 1169">
                    <g id="Group_1168" data-name="Group 1168">
                      <path id="Path_965" data-name="Path 965" d="M2860.636,1427.286a.289.289,0,0,0,.236-.079c.158-.079.158-.316.079-.473l-5.913-7.568c-.078-.158-.316-.158-.473-.079s-.158.316-.08.473l5.915,7.569C2860.478,1427.207,2860.557,1427.286,2860.636,1427.286Z" transform="translate(-2854.434 -1419.034)" fill="#f07162"/>
                    </g>
                  </g>
                </g>
                <g id="Group_1173" data-name="Group 1173" transform="translate(15.085 157.08)">
                  <g id="Group_1172" data-name="Group 1172">
                    <g id="Group_1171" data-name="Group 1171">
                      <path id="Path_966" data-name="Path 966" d="M2740.322,1453.481c.158,0,.237,0,.316-.158l7.726-10.564a.339.339,0,1,0-.552-.394l-7.726,10.564a.371.371,0,0,0,.079.473A.271.271,0,0,1,2740.322,1453.481Z" transform="translate(-2740.033 -1442.234)" fill="#f07162"/>
                    </g>
                  </g>
                </g>
                <g id="Group_1176" data-name="Group 1176" transform="translate(18.476 159.839)">
                  <g id="Group_1175" data-name="Group 1175">
                    <g id="Group_1174" data-name="Group 1174">
                      <path id="Path_967" data-name="Path 967" d="M2744.621,1457.3c.158,0,.238,0,.316-.157l7.332-10.88a.339.339,0,0,0-.552-.394l-7.332,10.88a.37.37,0,0,0,.078.473A.246.246,0,0,0,2744.621,1457.3Z" transform="translate(-2744.333 -1445.734)" fill="#f07162"/>
                    </g>
                  </g>
                </g>
                <g id="Group_1179" data-name="Group 1179" transform="translate(22.575 163.466)">
                  <g id="Group_1178" data-name="Group 1178">
                    <g id="Group_1177" data-name="Group 1177">
                      <path id="Path_968" data-name="Path 968" d="M2749.822,1460.241c.158,0,.237,0,.315-.158l6.071-9.224a.339.339,0,0,0-.553-.394l-6.071,9.224a.37.37,0,0,0,.079.473A.245.245,0,0,0,2749.822,1460.241Z" transform="translate(-2749.533 -1450.334)" fill="#f07162"/>
                    </g>
                  </g>
                </g>
                <g id="Group_1183" data-name="Group 1183" transform="translate(21.268 90.431)">
                  <g id="Group_1182" data-name="Group 1182" transform="translate(0 0)">
                    <rect id="Rectangle_120" data-name="Rectangle 120" width="0.946" height="41.076" transform="matrix(0.999, 0.032, -0.032, 0.999, 1.298, 0)" fill="#1e2b5f"/>
                  </g>
                </g>
                <g id="Group_1185" data-name="Group 1185" transform="translate(84.957 93.434)">
                  <g id="Group_1184" data-name="Group 1184" transform="translate(0 0)">
                    <rect id="Rectangle_121" data-name="Rectangle 121" width="48.25" height="0.946" transform="translate(0.868 0) rotate(66.522)" fill="#1e2b5f"/>
                  </g>
                </g>
                <g id="Group_1187" data-name="Group 1187" transform="translate(99.21 126.234)">
                  <g id="Group_1186" data-name="Group 1186" transform="translate(0 0)">
                    <rect id="Rectangle_122" data-name="Rectangle 122" width="13.403" height="0.946" transform="matrix(0.16, 0.987, -0.987, 0.16, 0.934, 0)" fill="#1e2b5f"/>
                  </g>
                </g>
                <g id="Group_1190" data-name="Group 1190" transform="translate(47.304 28.464)">
                  <g id="Group_1189" data-name="Group 1189">
                    <g id="Group_1188" data-name="Group 1188">
                      <path id="Path_970" data-name="Path 970" d="M2784.369,1288.324a.272.272,0,0,0,.157-.079.291.291,0,0,0-.078-.236l-3.233-1.1,1.025-7.647a.157.157,0,1,0-.315,0l-1.025,7.884,3.469,1.183Z" transform="translate(-2780.9 -1279.1)" fill="#f07162"/>
                    </g>
                  </g>
                </g>
                <g id="Group_1193" data-name="Group 1193" transform="translate(46.91 40.684)">
                  <g id="Group_1192" data-name="Group 1192">
                    <g id="Group_1191" data-name="Group 1191">
                      <path id="Path_971" data-name="Path 971" d="M2786.785,1294.757c-.079,0-6.386-.157-6.386-.157s.789,2.6,3.153,2.681S2786.785,1294.757,2786.785,1294.757Z" transform="translate(-2780.4 -1294.6)" fill="#f5fff5"/>
                    </g>
                  </g>
                </g>
              </g>
            </g>
          </g>
        </g>
      </g>
    </g>
  </g>
</svg>
